<?xml version="1.0" encoding="UTF-8"?>
<svg xmlns="http://www.w3.org/2000/svg" xmlns:xlink="http://www.w3.org/1999/xlink" width="500pt" height="500pt" viewBox="0 0 500 500" version="1.1">
<g id="surface16">
<path style="fill-rule:nonzero;fill:rgb(0%,0%,54.509804%);fill-opacity:1;stroke-width:0.1;stroke-linecap:butt;stroke-linejoin:miter;stroke:rgb(0%,0%,0%);stroke-opacity:1;stroke-miterlimit:10;" d="M 251 252.308594 L 251.5 252.019531 L 251.5 251.445312 L 251 251.15625 L 250.5 251.445312 L 250.5 252.019531 L 250 252.308594 L 250 252.886719 L 250.5 253.175781 L 251 252.886719 Z M 251 252.308594 "/>
<path style="fill-rule:nonzero;fill:rgb(0%,0%,54.509804%);fill-opacity:1;stroke-width:0.1;stroke-linecap:butt;stroke-linejoin:miter;stroke:rgb(0%,0%,0%);stroke-opacity:1;stroke-miterlimit:10;" d="M 252 252.308594 L 252.5 252.019531 L 252.5 251.445312 L 252 251.15625 L 251.5 251.445312 L 251.5 252.019531 L 251 252.308594 L 251 252.886719 L 251.5 253.175781 L 252 252.886719 Z M 252 252.308594 "/>
<path style="fill-rule:nonzero;fill:rgb(67.843137%,84.705882%,90.196078%);fill-opacity:1;stroke-width:0.1;stroke-linecap:butt;stroke-linejoin:miter;stroke:rgb(0%,0%,0%);stroke-opacity:1;stroke-miterlimit:10;" d="M 250.5 253.175781 L 250 252.886719 L 249.5 253.175781 L 249.5 253.753906 L 250 254.042969 L 250.5 253.753906 L 251 254.042969 L 251.5 253.753906 L 251.5 253.175781 L 251 252.886719 Z M 250.5 253.175781 "/>
<path style="fill-rule:nonzero;fill:rgb(67.843137%,84.705882%,90.196078%);fill-opacity:1;stroke-width:0.1;stroke-linecap:butt;stroke-linejoin:miter;stroke:rgb(0%,0%,0%);stroke-opacity:1;stroke-miterlimit:10;" d="M 250.5 253.175781 L 250 252.886719 L 249.5 253.175781 L 249.5 253.753906 L 250 254.042969 L 250.5 253.753906 L 251 254.042969 L 251.5 253.753906 L 251.5 253.175781 L 251 252.886719 Z M 250.5 253.175781 "/>
<path style="fill-rule:nonzero;fill:rgb(0%,0%,54.509804%);fill-opacity:1;stroke-width:0.1;stroke-linecap:butt;stroke-linejoin:miter;stroke:rgb(0%,0%,0%);stroke-opacity:1;stroke-miterlimit:10;" d="M 249.5 254.90625 L 250 254.617188 L 250 254.042969 L 249.5 253.753906 L 249 254.042969 L 249 254.617188 L 248.5 254.90625 L 248.5 255.484375 L 249 255.773438 L 249.5 255.484375 Z M 249.5 254.90625 "/>
<path style="fill-rule:nonzero;fill:rgb(0%,0%,54.509804%);fill-opacity:1;stroke-width:0.1;stroke-linecap:butt;stroke-linejoin:miter;stroke:rgb(0%,0%,0%);stroke-opacity:1;stroke-miterlimit:10;" d="M 250.5 254.90625 L 251 254.617188 L 251 254.042969 L 250.5 253.753906 L 250 254.042969 L 250 254.617188 L 249.5 254.90625 L 249.5 255.484375 L 250 255.773438 L 250.5 255.484375 Z M 250.5 254.90625 "/>
<path style="fill-rule:nonzero;fill:rgb(0%,0%,54.509804%);fill-opacity:1;stroke-width:0.1;stroke-linecap:butt;stroke-linejoin:miter;stroke:rgb(0%,0%,0%);stroke-opacity:1;stroke-miterlimit:10;" d="M 248.5 256.640625 L 249 256.351562 L 249 255.773438 L 248.5 255.484375 L 248 255.773438 L 248 256.351562 L 247.5 256.640625 L 247.5 257.21875 L 248 257.503906 L 248.5 257.21875 Z M 248.5 256.640625 "/>
<path style="fill-rule:nonzero;fill:rgb(0%,0%,54.509804%);fill-opacity:1;stroke-width:0.1;stroke-linecap:butt;stroke-linejoin:miter;stroke:rgb(0%,0%,0%);stroke-opacity:1;stroke-miterlimit:10;" d="M 249.5 256.640625 L 250 256.351562 L 250 255.773438 L 249.5 255.484375 L 249 255.773438 L 249 256.351562 L 248.5 256.640625 L 248.5 257.21875 L 249 257.503906 L 249.5 257.21875 Z M 249.5 256.640625 "/>
<path style="fill-rule:nonzero;fill:rgb(0%,0%,100%);fill-opacity:1;stroke-width:0.1;stroke-linecap:butt;stroke-linejoin:miter;stroke:rgb(0%,0%,0%);stroke-opacity:1;stroke-miterlimit:10;" d="M 248 258.082031 L 248 257.503906 L 247.5 257.21875 L 247 257.503906 L 247 258.082031 L 247.5 258.371094 L 247.5 258.949219 L 248 259.238281 L 248.5 258.949219 L 248.5 258.371094 Z M 248 258.082031 "/>
<path style="fill-rule:nonzero;fill:rgb(0%,0%,100%);fill-opacity:1;stroke-width:0.1;stroke-linecap:butt;stroke-linejoin:miter;stroke:rgb(0%,0%,0%);stroke-opacity:1;stroke-miterlimit:10;" d="M 248 258.082031 L 248 257.503906 L 247.5 257.21875 L 247 257.503906 L 247 258.082031 L 247.5 258.371094 L 247.5 258.949219 L 248 259.238281 L 248.5 258.949219 L 248.5 258.371094 Z M 248 258.082031 "/>
<path style="fill-rule:nonzero;fill:rgb(0%,0%,54.509804%);fill-opacity:1;stroke-width:0.1;stroke-linecap:butt;stroke-linejoin:miter;stroke:rgb(0%,0%,0%);stroke-opacity:1;stroke-miterlimit:10;" d="M 247 259.238281 L 247.5 258.949219 L 247.5 258.371094 L 247 258.082031 L 246.5 258.371094 L 246.5 258.949219 L 246 259.238281 L 246 259.816406 L 246.5 260.105469 L 247 259.816406 Z M 247 259.238281 "/>
<path style="fill-rule:nonzero;fill:rgb(0%,0%,54.509804%);fill-opacity:1;stroke-width:0.1;stroke-linecap:butt;stroke-linejoin:miter;stroke:rgb(0%,0%,0%);stroke-opacity:1;stroke-miterlimit:10;" d="M 252 252.308594 L 252.5 252.019531 L 252.5 251.445312 L 252 251.15625 L 251.5 251.445312 L 251.5 252.019531 L 251 252.308594 L 251 252.886719 L 251.5 253.175781 L 252 252.886719 Z M 252 252.308594 "/>
<path style="fill-rule:nonzero;fill:rgb(0%,0%,54.509804%);fill-opacity:1;stroke-width:0.1;stroke-linecap:butt;stroke-linejoin:miter;stroke:rgb(0%,0%,0%);stroke-opacity:1;stroke-miterlimit:10;" d="M 252.5 253.175781 L 253 252.886719 L 253 252.308594 L 252.5 252.019531 L 252 252.308594 L 252 252.886719 L 251.5 253.175781 L 251.5 253.753906 L 252 254.042969 L 252.5 253.753906 Z M 252.5 253.175781 "/>
<path style="fill-rule:nonzero;fill:rgb(0%,0%,54.509804%);fill-opacity:1;stroke-width:0.1;stroke-linecap:butt;stroke-linejoin:miter;stroke:rgb(0%,0%,0%);stroke-opacity:1;stroke-miterlimit:10;" d="M 250.5 254.90625 L 251 254.617188 L 251 254.042969 L 250.5 253.753906 L 250 254.042969 L 250 254.617188 L 249.5 254.90625 L 249.5 255.484375 L 250 255.773438 L 250.5 255.484375 Z M 250.5 254.90625 "/>
<path style="fill-rule:nonzero;fill:rgb(0%,0%,54.509804%);fill-opacity:1;stroke-width:0.1;stroke-linecap:butt;stroke-linejoin:miter;stroke:rgb(0%,0%,0%);stroke-opacity:1;stroke-miterlimit:10;" d="M 251.5 254.90625 L 252 254.617188 L 252 254.042969 L 251.5 253.753906 L 251 254.042969 L 251 254.617188 L 250.5 254.90625 L 250.5 255.484375 L 251 255.773438 L 251.5 255.484375 Z M 251.5 254.90625 "/>
<path style="fill-rule:nonzero;fill:rgb(0%,0%,54.509804%);fill-opacity:1;stroke-width:0.1;stroke-linecap:butt;stroke-linejoin:miter;stroke:rgb(0%,0%,0%);stroke-opacity:1;stroke-miterlimit:10;" d="M 249.5 256.640625 L 250 256.351562 L 250 255.773438 L 249.5 255.484375 L 249 255.773438 L 249 256.351562 L 248.5 256.640625 L 248.5 257.21875 L 249 257.503906 L 249.5 257.21875 Z M 249.5 256.640625 "/>
<path style="fill-rule:nonzero;fill:rgb(0%,0%,54.509804%);fill-opacity:1;stroke-width:0.1;stroke-linecap:butt;stroke-linejoin:miter;stroke:rgb(0%,0%,0%);stroke-opacity:1;stroke-miterlimit:10;" d="M 250 257.503906 L 250.5 257.21875 L 250.5 256.640625 L 250 256.351562 L 249.5 256.640625 L 249.5 257.21875 L 249 257.503906 L 249 258.082031 L 249.5 258.371094 L 250 258.082031 Z M 250 257.503906 "/>
<path style="fill-rule:nonzero;fill:rgb(0%,0%,100%);fill-opacity:1;stroke-width:0.1;stroke-linecap:butt;stroke-linejoin:miter;stroke:rgb(0%,0%,0%);stroke-opacity:1;stroke-miterlimit:10;" d="M 249 258.082031 L 249 257.503906 L 248.5 257.21875 L 248 257.503906 L 248 258.082031 L 248.5 258.371094 L 248.5 258.949219 L 249 259.238281 L 249.5 258.949219 L 249.5 258.371094 Z M 249 258.082031 "/>
<path style="fill-rule:nonzero;fill:rgb(0%,0%,100%);fill-opacity:1;stroke-width:0.1;stroke-linecap:butt;stroke-linejoin:miter;stroke:rgb(0%,0%,0%);stroke-opacity:1;stroke-miterlimit:10;" d="M 249 258.082031 L 249 257.503906 L 248.5 257.21875 L 248 257.503906 L 248 258.082031 L 248.5 258.371094 L 248.5 258.949219 L 249 259.238281 L 249.5 258.949219 L 249.5 258.371094 Z M 249 258.082031 "/>
<path style="fill-rule:nonzero;fill:rgb(67.843137%,84.705882%,90.196078%);fill-opacity:1;stroke-width:0.1;stroke-linecap:butt;stroke-linejoin:miter;stroke:rgb(0%,0%,0%);stroke-opacity:1;stroke-miterlimit:10;" d="M 248 259.238281 L 247.5 258.949219 L 247 259.238281 L 247 259.816406 L 247.5 260.105469 L 248 259.816406 L 248.5 260.105469 L 249 259.816406 L 249 259.238281 L 248.5 258.949219 Z M 248 259.238281 "/>
<path style="fill-rule:nonzero;fill:rgb(67.843137%,84.705882%,90.196078%);fill-opacity:1;stroke-width:0.1;stroke-linecap:butt;stroke-linejoin:miter;stroke:rgb(0%,0%,0%);stroke-opacity:1;stroke-miterlimit:10;" d="M 253.5 251.445312 L 253 251.15625 L 252.5 251.445312 L 252.5 252.019531 L 253 252.308594 L 253.5 252.019531 L 254 252.308594 L 254.5 252.019531 L 254.5 251.445312 L 254 251.15625 Z M 253.5 251.445312 "/>
<path style="fill-rule:nonzero;fill:rgb(0%,0%,54.509804%);fill-opacity:1;stroke-width:0.1;stroke-linecap:butt;stroke-linejoin:miter;stroke:rgb(0%,0%,0%);stroke-opacity:1;stroke-miterlimit:10;" d="M 252.5 253.175781 L 253 252.886719 L 253 252.308594 L 252.5 252.019531 L 252 252.308594 L 252 252.886719 L 251.5 253.175781 L 251.5 253.753906 L 252 254.042969 L 252.5 253.753906 Z M 252.5 253.175781 "/>
<path style="fill-rule:nonzero;fill:rgb(0%,0%,54.509804%);fill-opacity:1;stroke-width:0.1;stroke-linecap:butt;stroke-linejoin:miter;stroke:rgb(0%,0%,0%);stroke-opacity:1;stroke-miterlimit:10;" d="M 253.5 253.175781 L 254 252.886719 L 254 252.308594 L 253.5 252.019531 L 253 252.308594 L 253 252.886719 L 252.5 253.175781 L 252.5 253.753906 L 253 254.042969 L 253.5 253.753906 Z M 253.5 253.175781 "/>
<path style="fill-rule:nonzero;fill:rgb(0%,0%,54.509804%);fill-opacity:1;stroke-width:0.1;stroke-linecap:butt;stroke-linejoin:miter;stroke:rgb(0%,0%,0%);stroke-opacity:1;stroke-miterlimit:10;" d="M 251.5 254.90625 L 252 254.617188 L 252 254.042969 L 251.5 253.753906 L 251 254.042969 L 251 254.617188 L 250.5 254.90625 L 250.5 255.484375 L 251 255.773438 L 251.5 255.484375 Z M 251.5 254.90625 "/>
<path style="fill-rule:nonzero;fill:rgb(0%,0%,54.509804%);fill-opacity:1;stroke-width:0.1;stroke-linecap:butt;stroke-linejoin:miter;stroke:rgb(0%,0%,0%);stroke-opacity:1;stroke-miterlimit:10;" d="M 252.5 254.90625 L 253 254.617188 L 253 254.042969 L 252.5 253.753906 L 252 254.042969 L 252 254.617188 L 251.5 254.90625 L 251.5 255.484375 L 252 255.773438 L 252.5 255.484375 Z M 252.5 254.90625 "/>
<path style="fill-rule:nonzero;fill:rgb(0%,0%,100%);fill-opacity:1;stroke-width:0.1;stroke-linecap:butt;stroke-linejoin:miter;stroke:rgb(0%,0%,0%);stroke-opacity:1;stroke-miterlimit:10;" d="M 251 256.351562 L 251 255.773438 L 250.5 255.484375 L 250 255.773438 L 250 256.351562 L 250.5 256.640625 L 250.5 257.21875 L 251 257.503906 L 251.5 257.21875 L 251.5 256.640625 Z M 251 256.351562 "/>
<path style="fill-rule:nonzero;fill:rgb(0%,0%,100%);fill-opacity:1;stroke-width:0.1;stroke-linecap:butt;stroke-linejoin:miter;stroke:rgb(0%,0%,0%);stroke-opacity:1;stroke-miterlimit:10;" d="M 251 256.351562 L 251 255.773438 L 250.5 255.484375 L 250 255.773438 L 250 256.351562 L 250.5 256.640625 L 250.5 257.21875 L 251 257.503906 L 251.5 257.21875 L 251.5 256.640625 Z M 251 256.351562 "/>
<path style="fill-rule:nonzero;fill:rgb(0%,0%,54.509804%);fill-opacity:1;stroke-width:0.1;stroke-linecap:butt;stroke-linejoin:miter;stroke:rgb(0%,0%,0%);stroke-opacity:1;stroke-miterlimit:10;" d="M 250 257.503906 L 250.5 257.21875 L 250.5 256.640625 L 250 256.351562 L 249.5 256.640625 L 249.5 257.21875 L 249 257.503906 L 249 258.082031 L 249.5 258.371094 L 250 258.082031 Z M 250 257.503906 "/>
<path style="fill-rule:nonzero;fill:rgb(0%,0%,54.509804%);fill-opacity:1;stroke-width:0.1;stroke-linecap:butt;stroke-linejoin:miter;stroke:rgb(0%,0%,0%);stroke-opacity:1;stroke-miterlimit:10;" d="M 250.5 258.371094 L 251 258.082031 L 251 257.503906 L 250.5 257.21875 L 250 257.503906 L 250 258.082031 L 249.5 258.371094 L 249.5 258.949219 L 250 259.238281 L 250.5 258.949219 Z M 250.5 258.371094 "/>
<path style="fill-rule:nonzero;fill:rgb(0%,0%,54.509804%);fill-opacity:1;stroke-width:0.1;stroke-linecap:butt;stroke-linejoin:miter;stroke:rgb(0%,0%,0%);stroke-opacity:1;stroke-miterlimit:10;" d="M 255 252.308594 L 255.5 252.019531 L 255.5 251.445312 L 255 251.15625 L 254.5 251.445312 L 254.5 252.019531 L 254 252.308594 L 254 252.886719 L 254.5 253.175781 L 255 252.886719 Z M 255 252.308594 "/>
<path style="fill-rule:nonzero;fill:rgb(0%,0%,54.509804%);fill-opacity:1;stroke-width:0.1;stroke-linecap:butt;stroke-linejoin:miter;stroke:rgb(0%,0%,0%);stroke-opacity:1;stroke-miterlimit:10;" d="M 253.5 253.175781 L 254 252.886719 L 254 252.308594 L 253.5 252.019531 L 253 252.308594 L 253 252.886719 L 252.5 253.175781 L 252.5 253.753906 L 253 254.042969 L 253.5 253.753906 Z M 253.5 253.175781 "/>
<path style="fill-rule:nonzero;fill:rgb(0%,0%,54.509804%);fill-opacity:1;stroke-width:0.1;stroke-linecap:butt;stroke-linejoin:miter;stroke:rgb(0%,0%,0%);stroke-opacity:1;stroke-miterlimit:10;" d="M 252.5 254.90625 L 253 254.617188 L 253 254.042969 L 252.5 253.753906 L 252 254.042969 L 252 254.617188 L 251.5 254.90625 L 251.5 255.484375 L 252 255.773438 L 252.5 255.484375 Z M 252.5 254.90625 "/>
<path style="fill-rule:nonzero;fill:rgb(0%,0%,54.509804%);fill-opacity:1;stroke-width:0.1;stroke-linecap:butt;stroke-linejoin:miter;stroke:rgb(0%,0%,0%);stroke-opacity:1;stroke-miterlimit:10;" d="M 253 255.773438 L 253.5 255.484375 L 253.5 254.90625 L 253 254.617188 L 252.5 254.90625 L 252.5 255.484375 L 252 255.773438 L 252 256.351562 L 252.5 256.640625 L 253 256.351562 Z M 253 255.773438 "/>
<path style="fill-rule:nonzero;fill:rgb(0%,0%,100%);fill-opacity:1;stroke-width:0.1;stroke-linecap:butt;stroke-linejoin:miter;stroke:rgb(0%,0%,0%);stroke-opacity:1;stroke-miterlimit:10;" d="M 252 256.351562 L 252 255.773438 L 251.5 255.484375 L 251 255.773438 L 251 256.351562 L 251.5 256.640625 L 251.5 257.21875 L 252 257.503906 L 252.5 257.21875 L 252.5 256.640625 Z M 252 256.351562 "/>
<path style="fill-rule:nonzero;fill:rgb(0%,0%,100%);fill-opacity:1;stroke-width:0.1;stroke-linecap:butt;stroke-linejoin:miter;stroke:rgb(0%,0%,0%);stroke-opacity:1;stroke-miterlimit:10;" d="M 252 256.351562 L 252 255.773438 L 251.5 255.484375 L 251 255.773438 L 251 256.351562 L 251.5 256.640625 L 251.5 257.21875 L 252 257.503906 L 252.5 257.21875 L 252.5 256.640625 Z M 252 256.351562 "/>
<path style="fill-rule:nonzero;fill:rgb(0%,0%,54.509804%);fill-opacity:1;stroke-width:0.1;stroke-linecap:butt;stroke-linejoin:miter;stroke:rgb(0%,0%,0%);stroke-opacity:1;stroke-miterlimit:10;" d="M 250.5 258.371094 L 251 258.082031 L 251 257.503906 L 250.5 257.21875 L 250 257.503906 L 250 258.082031 L 249.5 258.371094 L 249.5 258.949219 L 250 259.238281 L 250.5 258.949219 Z M 250.5 258.371094 "/>
<path style="fill-rule:nonzero;fill:rgb(67.843137%,84.705882%,90.196078%);fill-opacity:1;stroke-width:0.1;stroke-linecap:butt;stroke-linejoin:miter;stroke:rgb(0%,0%,0%);stroke-opacity:1;stroke-miterlimit:10;" d="M 250 259.238281 L 249.5 258.949219 L 249 259.238281 L 249 259.816406 L 249.5 260.105469 L 250 259.816406 L 250.5 260.105469 L 251 259.816406 L 251 259.238281 L 250.5 258.949219 Z M 250 259.238281 "/>
<path style="fill-rule:nonzero;fill:rgb(0%,0%,54.509804%);fill-opacity:1;stroke-width:0.1;stroke-linecap:butt;stroke-linejoin:miter;stroke:rgb(0%,0%,0%);stroke-opacity:1;stroke-miterlimit:10;" d="M 255 252.308594 L 255.5 252.019531 L 255.5 251.445312 L 255 251.15625 L 254.5 251.445312 L 254.5 252.019531 L 254 252.308594 L 254 252.886719 L 254.5 253.175781 L 255 252.886719 Z M 255 252.308594 "/>
<path style="fill-rule:nonzero;fill:rgb(0%,0%,54.509804%);fill-opacity:1;stroke-width:0.1;stroke-linecap:butt;stroke-linejoin:miter;stroke:rgb(0%,0%,0%);stroke-opacity:1;stroke-miterlimit:10;" d="M 256 252.308594 L 256.5 252.019531 L 256.5 251.445312 L 256 251.15625 L 255.5 251.445312 L 255.5 252.019531 L 255 252.308594 L 255 252.886719 L 255.5 253.175781 L 256 252.886719 Z M 256 252.308594 "/>
<path style="fill-rule:nonzero;fill:rgb(0%,0%,100%);fill-opacity:1;stroke-width:0.1;stroke-linecap:butt;stroke-linejoin:miter;stroke:rgb(0%,0%,0%);stroke-opacity:1;stroke-miterlimit:10;" d="M 254.5 253.753906 L 254.5 253.175781 L 254 252.886719 L 253.5 253.175781 L 253.5 253.753906 L 254 254.042969 L 254 254.617188 L 254.5 254.90625 L 255 254.617188 L 255 254.042969 Z M 254.5 253.753906 "/>
<path style="fill-rule:nonzero;fill:rgb(0%,0%,100%);fill-opacity:1;stroke-width:0.1;stroke-linecap:butt;stroke-linejoin:miter;stroke:rgb(0%,0%,0%);stroke-opacity:1;stroke-miterlimit:10;" d="M 254.5 253.753906 L 254.5 253.175781 L 254 252.886719 L 253.5 253.175781 L 253.5 253.753906 L 254 254.042969 L 254 254.617188 L 254.5 254.90625 L 255 254.617188 L 255 254.042969 Z M 254.5 253.753906 "/>
<path style="fill-rule:nonzero;fill:rgb(0%,0%,100%);fill-opacity:1;stroke-width:0.1;stroke-linecap:butt;stroke-linejoin:miter;stroke:rgb(0%,0%,0%);stroke-opacity:1;stroke-miterlimit:10;" d="M 254 254.617188 L 254 254.042969 L 253.5 253.753906 L 253 254.042969 L 253 254.617188 L 253.5 254.90625 L 253.5 255.484375 L 254 255.773438 L 254.5 255.484375 L 254.5 254.90625 Z M 254 254.617188 "/>
<path style="fill-rule:nonzero;fill:rgb(0%,0%,100%);fill-opacity:1;stroke-width:0.1;stroke-linecap:butt;stroke-linejoin:miter;stroke:rgb(0%,0%,0%);stroke-opacity:1;stroke-miterlimit:10;" d="M 254 254.617188 L 254 254.042969 L 253.5 253.753906 L 253 254.042969 L 253 254.617188 L 253.5 254.90625 L 253.5 255.484375 L 254 255.773438 L 254.5 255.484375 L 254.5 254.90625 Z M 254 254.617188 "/>
<path style="fill-rule:nonzero;fill:rgb(0%,0%,54.509804%);fill-opacity:1;stroke-width:0.1;stroke-linecap:butt;stroke-linejoin:miter;stroke:rgb(0%,0%,0%);stroke-opacity:1;stroke-miterlimit:10;" d="M 253 255.773438 L 253.5 255.484375 L 253.5 254.90625 L 253 254.617188 L 252.5 254.90625 L 252.5 255.484375 L 252 255.773438 L 252 256.351562 L 252.5 256.640625 L 253 256.351562 Z M 253 255.773438 "/>
<path style="fill-rule:nonzero;fill:rgb(0%,0%,54.509804%);fill-opacity:1;stroke-width:0.1;stroke-linecap:butt;stroke-linejoin:miter;stroke:rgb(0%,0%,0%);stroke-opacity:1;stroke-miterlimit:10;" d="M 253.5 256.640625 L 254 256.351562 L 254 255.773438 L 253.5 255.484375 L 253 255.773438 L 253 256.351562 L 252.5 256.640625 L 252.5 257.21875 L 253 257.503906 L 253.5 257.21875 Z M 253.5 256.640625 "/>
<path style="fill-rule:nonzero;fill:rgb(67.843137%,84.705882%,90.196078%);fill-opacity:1;stroke-width:0.1;stroke-linecap:butt;stroke-linejoin:miter;stroke:rgb(0%,0%,0%);stroke-opacity:1;stroke-miterlimit:10;" d="M 252 257.503906 L 251.5 257.21875 L 251 257.503906 L 251 258.082031 L 251.5 258.371094 L 252 258.082031 L 252.5 258.371094 L 253 258.082031 L 253 257.503906 L 252.5 257.21875 Z M 252 257.503906 "/>
<path style="fill-rule:nonzero;fill:rgb(67.843137%,84.705882%,90.196078%);fill-opacity:1;stroke-width:0.1;stroke-linecap:butt;stroke-linejoin:miter;stroke:rgb(0%,0%,0%);stroke-opacity:1;stroke-miterlimit:10;" d="M 252 257.503906 L 251.5 257.21875 L 251 257.503906 L 251 258.082031 L 251.5 258.371094 L 252 258.082031 L 252.5 258.371094 L 253 258.082031 L 253 257.503906 L 252.5 257.21875 Z M 252 257.503906 "/>
<path style="fill-rule:nonzero;fill:rgb(0%,0%,100%);fill-opacity:1;stroke-width:0.1;stroke-linecap:butt;stroke-linejoin:miter;stroke:rgb(0%,0%,0%);stroke-opacity:1;stroke-miterlimit:10;" d="M 251.5 258.949219 L 251.5 258.371094 L 251 258.082031 L 250.5 258.371094 L 250.5 258.949219 L 251 259.238281 L 251 259.816406 L 251.5 260.105469 L 252 259.816406 L 252 259.238281 Z M 251.5 258.949219 "/>
<path style="fill-rule:nonzero;fill:rgb(0%,0%,100%);fill-opacity:1;stroke-width:0.1;stroke-linecap:butt;stroke-linejoin:miter;stroke:rgb(0%,0%,0%);stroke-opacity:1;stroke-miterlimit:10;" d="M 251.5 258.949219 L 251.5 258.371094 L 251 258.082031 L 250.5 258.371094 L 250.5 258.949219 L 251 259.238281 L 251 259.816406 L 251.5 260.105469 L 252 259.816406 L 252 259.238281 Z M 251.5 258.949219 "/>
<path style="fill-rule:nonzero;fill:rgb(0%,0%,54.509804%);fill-opacity:1;stroke-width:0.1;stroke-linecap:butt;stroke-linejoin:miter;stroke:rgb(0%,0%,0%);stroke-opacity:1;stroke-miterlimit:10;" d="M 256 252.308594 L 256.5 252.019531 L 256.5 251.445312 L 256 251.15625 L 255.5 251.445312 L 255.5 252.019531 L 255 252.308594 L 255 252.886719 L 255.5 253.175781 L 256 252.886719 Z M 256 252.308594 "/>
<path style="fill-rule:nonzero;fill:rgb(67.843137%,84.705882%,90.196078%);fill-opacity:1;stroke-width:0.1;stroke-linecap:butt;stroke-linejoin:miter;stroke:rgb(0%,0%,0%);stroke-opacity:1;stroke-miterlimit:10;" d="M 255.5 253.175781 L 255 252.886719 L 254.5 253.175781 L 254.5 253.753906 L 255 254.042969 L 255.5 253.753906 L 256 254.042969 L 256.5 253.753906 L 256.5 253.175781 L 256 252.886719 Z M 255.5 253.175781 "/>
<path style="fill-rule:nonzero;fill:rgb(67.843137%,84.705882%,90.196078%);fill-opacity:1;stroke-width:0.1;stroke-linecap:butt;stroke-linejoin:miter;stroke:rgb(0%,0%,0%);stroke-opacity:1;stroke-miterlimit:10;" d="M 255.5 253.175781 L 255 252.886719 L 254.5 253.175781 L 254.5 253.753906 L 255 254.042969 L 255.5 253.753906 L 256 254.042969 L 256.5 253.753906 L 256.5 253.175781 L 256 252.886719 Z M 255.5 253.175781 "/>
<path style="fill-rule:nonzero;fill:rgb(0%,0%,54.509804%);fill-opacity:1;stroke-width:0.1;stroke-linecap:butt;stroke-linejoin:miter;stroke:rgb(0%,0%,0%);stroke-opacity:1;stroke-miterlimit:10;" d="M 253.5 256.640625 L 254 256.351562 L 254 255.773438 L 253.5 255.484375 L 253 255.773438 L 253 256.351562 L 252.5 256.640625 L 252.5 257.21875 L 253 257.503906 L 253.5 257.21875 Z M 253.5 256.640625 "/>
<path style="fill-rule:nonzero;fill:rgb(67.843137%,84.705882%,90.196078%);fill-opacity:1;stroke-width:0.1;stroke-linecap:butt;stroke-linejoin:miter;stroke:rgb(0%,0%,0%);stroke-opacity:1;stroke-miterlimit:10;" d="M 252.5 258.371094 L 252 258.082031 L 251.5 258.371094 L 251.5 258.949219 L 252 259.238281 L 252.5 258.949219 L 253 259.238281 L 253.5 258.949219 L 253.5 258.371094 L 253 258.082031 Z M 252.5 258.371094 "/>
<path style="fill-rule:nonzero;fill:rgb(67.843137%,84.705882%,90.196078%);fill-opacity:1;stroke-width:0.1;stroke-linecap:butt;stroke-linejoin:miter;stroke:rgb(0%,0%,0%);stroke-opacity:1;stroke-miterlimit:10;" d="M 252.5 258.371094 L 252 258.082031 L 251.5 258.371094 L 251.5 258.949219 L 252 259.238281 L 252.5 258.949219 L 253 259.238281 L 253.5 258.949219 L 253.5 258.371094 L 253 258.082031 Z M 252.5 258.371094 "/>
<path style="fill-rule:nonzero;fill:rgb(0%,0%,100%);fill-opacity:1;stroke-width:0.1;stroke-linecap:butt;stroke-linejoin:miter;stroke:rgb(0%,0%,0%);stroke-opacity:1;stroke-miterlimit:10;" d="M 257.5 252.019531 L 257.5 251.445312 L 257 251.15625 L 256.5 251.445312 L 256.5 252.019531 L 257 252.308594 L 257 252.886719 L 257.5 253.175781 L 258 252.886719 L 258 252.308594 Z M 257.5 252.019531 "/>
<path style="fill-rule:nonzero;fill:rgb(0%,0%,100%);fill-opacity:1;stroke-width:0.1;stroke-linecap:butt;stroke-linejoin:miter;stroke:rgb(0%,0%,0%);stroke-opacity:1;stroke-miterlimit:10;" d="M 257.5 252.019531 L 257.5 251.445312 L 257 251.15625 L 256.5 251.445312 L 256.5 252.019531 L 257 252.308594 L 257 252.886719 L 257.5 253.175781 L 258 252.886719 L 258 252.308594 Z M 257.5 252.019531 "/>
<path style="fill-rule:nonzero;fill:rgb(0%,0%,100%);fill-opacity:1;stroke-width:0.1;stroke-linecap:butt;stroke-linejoin:miter;stroke:rgb(0%,0%,0%);stroke-opacity:1;stroke-miterlimit:10;" d="M 257 252.886719 L 257 252.308594 L 256.5 252.019531 L 256 252.308594 L 256 252.886719 L 256.5 253.175781 L 256.5 253.753906 L 257 254.042969 L 257.5 253.753906 L 257.5 253.175781 Z M 257 252.886719 "/>
<path style="fill-rule:nonzero;fill:rgb(0%,0%,100%);fill-opacity:1;stroke-width:0.1;stroke-linecap:butt;stroke-linejoin:miter;stroke:rgb(0%,0%,0%);stroke-opacity:1;stroke-miterlimit:10;" d="M 257 252.886719 L 257 252.308594 L 256.5 252.019531 L 256 252.308594 L 256 252.886719 L 256.5 253.175781 L 256.5 253.753906 L 257 254.042969 L 257.5 253.753906 L 257.5 253.175781 Z M 257 252.886719 "/>
<path style="fill-rule:nonzero;fill:rgb(67.843137%,84.705882%,90.196078%);fill-opacity:1;stroke-width:0.1;stroke-linecap:butt;stroke-linejoin:miter;stroke:rgb(0%,0%,0%);stroke-opacity:1;stroke-miterlimit:10;" d="M 256 254.042969 L 255.5 253.753906 L 255 254.042969 L 255 254.617188 L 255.5 254.90625 L 256 254.617188 L 256.5 254.90625 L 257 254.617188 L 257 254.042969 L 256.5 253.753906 Z M 256 254.042969 "/>
<path style="fill-rule:nonzero;fill:rgb(67.843137%,84.705882%,90.196078%);fill-opacity:1;stroke-width:0.1;stroke-linecap:butt;stroke-linejoin:miter;stroke:rgb(0%,0%,0%);stroke-opacity:1;stroke-miterlimit:10;" d="M 256 254.042969 L 255.5 253.753906 L 255 254.042969 L 255 254.617188 L 255.5 254.90625 L 256 254.617188 L 256.5 254.90625 L 257 254.617188 L 257 254.042969 L 256.5 253.753906 Z M 256 254.042969 "/>
<path style="fill-rule:nonzero;fill:rgb(0%,0%,100%);fill-opacity:1;stroke-width:0.1;stroke-linecap:butt;stroke-linejoin:miter;stroke:rgb(0%,0%,0%);stroke-opacity:1;stroke-miterlimit:10;" d="M 255.5 255.484375 L 255.5 254.90625 L 255 254.617188 L 254.5 254.90625 L 254.5 255.484375 L 255 255.773438 L 255 256.351562 L 255.5 256.640625 L 256 256.351562 L 256 255.773438 Z M 255.5 255.484375 "/>
<path style="fill-rule:nonzero;fill:rgb(0%,0%,100%);fill-opacity:1;stroke-width:0.1;stroke-linecap:butt;stroke-linejoin:miter;stroke:rgb(0%,0%,0%);stroke-opacity:1;stroke-miterlimit:10;" d="M 255.5 255.484375 L 255.5 254.90625 L 255 254.617188 L 254.5 254.90625 L 254.5 255.484375 L 255 255.773438 L 255 256.351562 L 255.5 256.640625 L 256 256.351562 L 256 255.773438 Z M 255.5 255.484375 "/>
<path style="fill-rule:nonzero;fill:rgb(0%,0%,100%);fill-opacity:1;stroke-width:0.1;stroke-linecap:butt;stroke-linejoin:miter;stroke:rgb(0%,0%,0%);stroke-opacity:1;stroke-miterlimit:10;" d="M 255 256.351562 L 255 255.773438 L 254.5 255.484375 L 254 255.773438 L 254 256.351562 L 254.5 256.640625 L 254.5 257.21875 L 255 257.503906 L 255.5 257.21875 L 255.5 256.640625 Z M 255 256.351562 "/>
<path style="fill-rule:nonzero;fill:rgb(0%,0%,100%);fill-opacity:1;stroke-width:0.1;stroke-linecap:butt;stroke-linejoin:miter;stroke:rgb(0%,0%,0%);stroke-opacity:1;stroke-miterlimit:10;" d="M 255 256.351562 L 255 255.773438 L 254.5 255.484375 L 254 255.773438 L 254 256.351562 L 254.5 256.640625 L 254.5 257.21875 L 255 257.503906 L 255.5 257.21875 L 255.5 256.640625 Z M 255 256.351562 "/>
<path style="fill-rule:nonzero;fill:rgb(0%,0%,100%);fill-opacity:1;stroke-width:0.1;stroke-linecap:butt;stroke-linejoin:miter;stroke:rgb(0%,0%,0%);stroke-opacity:1;stroke-miterlimit:10;" d="M 254.5 257.21875 L 254.5 256.640625 L 254 256.351562 L 253.5 256.640625 L 253.5 257.21875 L 254 257.503906 L 254 258.082031 L 254.5 258.371094 L 255 258.082031 L 255 257.503906 Z M 254.5 257.21875 "/>
<path style="fill-rule:nonzero;fill:rgb(0%,0%,100%);fill-opacity:1;stroke-width:0.1;stroke-linecap:butt;stroke-linejoin:miter;stroke:rgb(0%,0%,0%);stroke-opacity:1;stroke-miterlimit:10;" d="M 254.5 257.21875 L 254.5 256.640625 L 254 256.351562 L 253.5 256.640625 L 253.5 257.21875 L 254 257.503906 L 254 258.082031 L 254.5 258.371094 L 255 258.082031 L 255 257.503906 Z M 254.5 257.21875 "/>
<path style="fill-rule:nonzero;fill:rgb(0%,0%,100%);fill-opacity:1;stroke-width:0.1;stroke-linecap:butt;stroke-linejoin:miter;stroke:rgb(0%,0%,0%);stroke-opacity:1;stroke-miterlimit:10;" d="M 254 258.082031 L 254 257.503906 L 253.5 257.21875 L 253 257.503906 L 253 258.082031 L 253.5 258.371094 L 253.5 258.949219 L 254 259.238281 L 254.5 258.949219 L 254.5 258.371094 Z M 254 258.082031 "/>
<path style="fill-rule:nonzero;fill:rgb(0%,0%,100%);fill-opacity:1;stroke-width:0.1;stroke-linecap:butt;stroke-linejoin:miter;stroke:rgb(0%,0%,0%);stroke-opacity:1;stroke-miterlimit:10;" d="M 254 258.082031 L 254 257.503906 L 253.5 257.21875 L 253 257.503906 L 253 258.082031 L 253.5 258.371094 L 253.5 258.949219 L 254 259.238281 L 254.5 258.949219 L 254.5 258.371094 Z M 254 258.082031 "/>
<path style="fill-rule:nonzero;fill:rgb(67.843137%,84.705882%,90.196078%);fill-opacity:1;stroke-width:0.1;stroke-linecap:butt;stroke-linejoin:miter;stroke:rgb(0%,0%,0%);stroke-opacity:1;stroke-miterlimit:10;" d="M 253 259.238281 L 252.5 258.949219 L 252 259.238281 L 252 259.816406 L 252.5 260.105469 L 253 259.816406 L 253.5 260.105469 L 254 259.816406 L 254 259.238281 L 253.5 258.949219 Z M 253 259.238281 "/>
<path style="fill-rule:nonzero;fill:rgb(67.843137%,84.705882%,90.196078%);fill-opacity:1;stroke-width:0.1;stroke-linecap:butt;stroke-linejoin:miter;stroke:rgb(0%,0%,0%);stroke-opacity:1;stroke-miterlimit:10;" d="M 258.5 251.445312 L 258 251.15625 L 257.5 251.445312 L 257.5 252.019531 L 258 252.308594 L 258.5 252.019531 L 259 252.308594 L 259.5 252.019531 L 259.5 251.445312 L 259 251.15625 Z M 258.5 251.445312 "/>
<path style="fill-rule:nonzero;fill:rgb(0%,0%,54.509804%);fill-opacity:1;stroke-width:0.1;stroke-linecap:butt;stroke-linejoin:miter;stroke:rgb(0%,0%,0%);stroke-opacity:1;stroke-miterlimit:10;" d="M 258 254.042969 L 258.5 253.753906 L 258.5 253.175781 L 258 252.886719 L 257.5 253.175781 L 257.5 253.753906 L 257 254.042969 L 257 254.617188 L 257.5 254.90625 L 258 254.617188 Z M 258 254.042969 "/>
<path style="fill-rule:nonzero;fill:rgb(0%,0%,100%);fill-opacity:1;stroke-width:0.1;stroke-linecap:butt;stroke-linejoin:miter;stroke:rgb(0%,0%,0%);stroke-opacity:1;stroke-miterlimit:10;" d="M 256.5 255.484375 L 256.5 254.90625 L 256 254.617188 L 255.5 254.90625 L 255.5 255.484375 L 256 255.773438 L 256 256.351562 L 256.5 256.640625 L 257 256.351562 L 257 255.773438 Z M 256.5 255.484375 "/>
<path style="fill-rule:nonzero;fill:rgb(0%,0%,100%);fill-opacity:1;stroke-width:0.1;stroke-linecap:butt;stroke-linejoin:miter;stroke:rgb(0%,0%,0%);stroke-opacity:1;stroke-miterlimit:10;" d="M 256.5 255.484375 L 256.5 254.90625 L 256 254.617188 L 255.5 254.90625 L 255.5 255.484375 L 256 255.773438 L 256 256.351562 L 256.5 256.640625 L 257 256.351562 L 257 255.773438 Z M 256.5 255.484375 "/>
<path style="fill-rule:nonzero;fill:rgb(0%,0%,54.509804%);fill-opacity:1;stroke-width:0.1;stroke-linecap:butt;stroke-linejoin:miter;stroke:rgb(0%,0%,0%);stroke-opacity:1;stroke-miterlimit:10;" d="M 256 257.503906 L 256.5 257.21875 L 256.5 256.640625 L 256 256.351562 L 255.5 256.640625 L 255.5 257.21875 L 255 257.503906 L 255 258.082031 L 255.5 258.371094 L 256 258.082031 Z M 256 257.503906 "/>
<path style="fill-rule:nonzero;fill:rgb(0%,0%,54.509804%);fill-opacity:1;stroke-width:0.1;stroke-linecap:butt;stroke-linejoin:miter;stroke:rgb(0%,0%,0%);stroke-opacity:1;stroke-miterlimit:10;" d="M 260 252.308594 L 260.5 252.019531 L 260.5 251.445312 L 260 251.15625 L 259.5 251.445312 L 259.5 252.019531 L 259 252.308594 L 259 252.886719 L 259.5 253.175781 L 260 252.886719 Z M 260 252.308594 "/>
<path style="fill-rule:nonzero;fill:rgb(0%,0%,100%);fill-opacity:1;stroke-width:0.1;stroke-linecap:butt;stroke-linejoin:miter;stroke:rgb(0%,0%,0%);stroke-opacity:1;stroke-miterlimit:10;" d="M 259 252.886719 L 259 252.308594 L 258.5 252.019531 L 258 252.308594 L 258 252.886719 L 258.5 253.175781 L 258.5 253.753906 L 259 254.042969 L 259.5 253.753906 L 259.5 253.175781 Z M 259 252.886719 "/>
<path style="fill-rule:nonzero;fill:rgb(0%,0%,100%);fill-opacity:1;stroke-width:0.1;stroke-linecap:butt;stroke-linejoin:miter;stroke:rgb(0%,0%,0%);stroke-opacity:1;stroke-miterlimit:10;" d="M 259 252.886719 L 259 252.308594 L 258.5 252.019531 L 258 252.308594 L 258 252.886719 L 258.5 253.175781 L 258.5 253.753906 L 259 254.042969 L 259.5 253.753906 L 259.5 253.175781 Z M 259 252.886719 "/>
<path style="fill-rule:nonzero;fill:rgb(0%,0%,54.509804%);fill-opacity:1;stroke-width:0.1;stroke-linecap:butt;stroke-linejoin:miter;stroke:rgb(0%,0%,0%);stroke-opacity:1;stroke-miterlimit:10;" d="M 258 254.042969 L 258.5 253.753906 L 258.5 253.175781 L 258 252.886719 L 257.5 253.175781 L 257.5 253.753906 L 257 254.042969 L 257 254.617188 L 257.5 254.90625 L 258 254.617188 Z M 258 254.042969 "/>
<path style="fill-rule:nonzero;fill:rgb(0%,0%,54.509804%);fill-opacity:1;stroke-width:0.1;stroke-linecap:butt;stroke-linejoin:miter;stroke:rgb(0%,0%,0%);stroke-opacity:1;stroke-miterlimit:10;" d="M 258.5 254.90625 L 259 254.617188 L 259 254.042969 L 258.5 253.753906 L 258 254.042969 L 258 254.617188 L 257.5 254.90625 L 257.5 255.484375 L 258 255.773438 L 258.5 255.484375 Z M 258.5 254.90625 "/>
<path style="fill-rule:nonzero;fill:rgb(0%,0%,100%);fill-opacity:1;stroke-width:0.1;stroke-linecap:butt;stroke-linejoin:miter;stroke:rgb(0%,0%,0%);stroke-opacity:1;stroke-miterlimit:10;" d="M 257.5 255.484375 L 257.5 254.90625 L 257 254.617188 L 256.5 254.90625 L 256.5 255.484375 L 257 255.773438 L 257 256.351562 L 257.5 256.640625 L 258 256.351562 L 258 255.773438 Z M 257.5 255.484375 "/>
<path style="fill-rule:nonzero;fill:rgb(0%,0%,100%);fill-opacity:1;stroke-width:0.1;stroke-linecap:butt;stroke-linejoin:miter;stroke:rgb(0%,0%,0%);stroke-opacity:1;stroke-miterlimit:10;" d="M 257.5 255.484375 L 257.5 254.90625 L 257 254.617188 L 256.5 254.90625 L 256.5 255.484375 L 257 255.773438 L 257 256.351562 L 257.5 256.640625 L 258 256.351562 L 258 255.773438 Z M 257.5 255.484375 "/>
<path style="fill-rule:nonzero;fill:rgb(0%,0%,54.509804%);fill-opacity:1;stroke-width:0.1;stroke-linecap:butt;stroke-linejoin:miter;stroke:rgb(0%,0%,0%);stroke-opacity:1;stroke-miterlimit:10;" d="M 256 257.503906 L 256.5 257.21875 L 256.5 256.640625 L 256 256.351562 L 255.5 256.640625 L 255.5 257.21875 L 255 257.503906 L 255 258.082031 L 255.5 258.371094 L 256 258.082031 Z M 256 257.503906 "/>
<path style="fill-rule:nonzero;fill:rgb(0%,0%,54.509804%);fill-opacity:1;stroke-width:0.1;stroke-linecap:butt;stroke-linejoin:miter;stroke:rgb(0%,0%,0%);stroke-opacity:1;stroke-miterlimit:10;" d="M 257 257.503906 L 257.5 257.21875 L 257.5 256.640625 L 257 256.351562 L 256.5 256.640625 L 256.5 257.21875 L 256 257.503906 L 256 258.082031 L 256.5 258.371094 L 257 258.082031 Z M 257 257.503906 "/>
<path style="fill-rule:nonzero;fill:rgb(67.843137%,84.705882%,90.196078%);fill-opacity:1;stroke-width:0.1;stroke-linecap:butt;stroke-linejoin:miter;stroke:rgb(0%,0%,0%);stroke-opacity:1;stroke-miterlimit:10;" d="M 255.5 258.371094 L 255 258.082031 L 254.5 258.371094 L 254.5 258.949219 L 255 259.238281 L 255.5 258.949219 L 256 259.238281 L 256.5 258.949219 L 256.5 258.371094 L 256 258.082031 Z M 255.5 258.371094 "/>
<path style="fill-rule:nonzero;fill:rgb(67.843137%,84.705882%,90.196078%);fill-opacity:1;stroke-width:0.1;stroke-linecap:butt;stroke-linejoin:miter;stroke:rgb(0%,0%,0%);stroke-opacity:1;stroke-miterlimit:10;" d="M 255 259.238281 L 254.5 258.949219 L 254 259.238281 L 254 259.816406 L 254.5 260.105469 L 255 259.816406 L 255.5 260.105469 L 256 259.816406 L 256 259.238281 L 255.5 258.949219 Z M 255 259.238281 "/>
<path style="fill-rule:nonzero;fill:rgb(67.843137%,84.705882%,90.196078%);fill-opacity:1;stroke-width:0.1;stroke-linecap:butt;stroke-linejoin:miter;stroke:rgb(0%,0%,0%);stroke-opacity:1;stroke-miterlimit:10;" d="M 255.5 258.371094 L 255 258.082031 L 254.5 258.371094 L 254.5 258.949219 L 255 259.238281 L 255.5 258.949219 L 256 259.238281 L 256.5 258.949219 L 256.5 258.371094 L 256 258.082031 Z M 255.5 258.371094 "/>
</g>
</svg>
